<?xml version="1.0" encoding="utf-8"?>

<!DOCTYPE svg PUBLIC "-//W3C//DTD SVG 1.1//EN" "http://www.w3.org/Graphics/SVG/1.1/DTD/svg11.dtd">
<!-- Uploaded to: SVG Repo, www.svgrepo.com, Generator: SVG Repo Mixer Tools -->
<svg height="800px" width="800px" version="1.1" id="_x32_" xmlns="http://www.w3.org/2000/svg" xmlns:xlink="http://www.w3.org/1999/xlink" 
	 viewBox="0 0 512 512"  xml:space="preserve">
<style type="text/css">
	.st0{fill:#000000;}
</style>
<g>
	<path class="st0" d="M189.548,189.529c41.968-41.968,41.968-110.008,0-151.977L37.572,189.529
		c20.988,20.979,48.488,31.483,75.988,31.483S168.559,210.518,189.548,189.529z M187.274,72.474
		c17.869,32.103,13.191,73.489-14.055,100.726c-15.934,15.944-37.12,24.718-59.66,24.718c-14.619,0-28.665-3.692-41.085-10.634
		L187.274,72.474z"/>
	<path class="st0" d="M163.213,261.9l180.98,180.942l98.668-98.668L261.9,163.213L163.213,261.9z M344.193,410.194L195.871,261.9
		l66.029-66.03l148.304,148.304L344.193,410.194z"/>
	<path class="st0" d="M0,427.669L84.331,512l151.281-151.3l-84.322-84.332L0,427.669z M107.302,351.559l19.645,19.636l-32.14,32.131
		L75.171,383.7L107.302,351.559z M31.21,427.669l30.122-30.121l19.626,19.636l-30.112,30.103L31.21,427.669z M84.331,480.761
		l-19.626-19.626l30.102-30.112l19.636,19.627L84.331,480.761z M128.292,436.801l-19.627-19.617l32.132-32.141l19.626,19.627
		L128.292,436.801z M204.383,360.7l-30.102,30.111l-19.626-19.626l30.112-30.102L204.383,360.7z M140.805,357.336L121.17,337.71
		l30.121-30.102l19.617,19.618L140.805,357.336z"/>
	<path class="st0" d="M512,84.312L427.669,0L276.388,151.281l84.322,84.322L512,84.312z M404.67,160.423l-19.626-19.627
		l32.141-32.141l19.626,19.626L404.67,160.423z M480.78,84.312l-30.112,30.112l-19.626-19.617l30.112-30.121L480.78,84.312z
		 M427.679,31.21l19.626,19.626l-30.12,30.112l-19.618-19.616L427.679,31.21z M383.709,75.17l19.626,19.636l-32.14,32.141
		l-19.626-19.627L383.709,75.17z M307.608,151.272l30.102-30.112l19.627,19.645l-30.102,30.093L307.608,151.272z M371.204,154.645
		l19.626,19.616l-30.12,30.122l-19.618-19.636L371.204,154.645z"/>
	<path class="st0" d="M92.59,92.599c8.522-8.512,8.522-22.314,0.019-30.817c-8.531-8.511-22.323-8.511-30.826,0
		c-8.503,8.503-8.503,22.295,0,30.817C70.286,101.102,84.096,101.102,92.59,92.599z"/>
</g>
</svg>